<?xml version="1.0" encoding="iso-8859-1"?>
<!-- Uploaded to: SVG Repo, www.svgrepo.com, Generator: SVG Repo Mixer Tools -->
<svg fill="#000000" height="800px" width="800px" version="1.1" id="Layer_1" xmlns="http://www.w3.org/2000/svg" xmlns:xlink="http://www.w3.org/1999/xlink" 
	 viewBox="0 0 512 512" xml:space="preserve">
<g>
	<g>
		<path d="M382.094,126.094c-60.857,0-112.064,42.067-126.095,98.647c-14.03-56.579-65.238-98.647-126.095-98.647
			C58.275,126.095,0,184.37,0,256s58.275,129.906,129.906,129.906c60.857,0,112.064-42.067,126.095-98.647
			c14.03,56.579,65.238,98.647,126.095,98.647C453.724,385.906,512,327.63,512,256S453.725,126.094,382.094,126.094z
			 M120.983,153.946c0-4.928,3.995-8.923,8.923-8.923c4.928,0,8.923,3.995,8.923,8.923v18.765c0,4.928-3.995,8.923-8.923,8.923
			c-4.928,0-8.923-3.995-8.923-8.923V153.946z M51.434,177.528c3.485-3.484,9.135-3.484,12.618,0l13.268,13.268
			c3.484,3.484,3.484,9.134-0.001,12.618c-3.483,3.484-9.133,3.486-12.618,0l-13.268-13.268
			C47.949,186.662,47.949,181.013,51.434,177.528z M27.852,264.923c-4.928,0-8.923-3.995-8.923-8.923
			c0-4.928,3.995-8.923,8.923-8.923h18.765c4.928,0,8.923,3.995,8.923,8.923c0,4.928-3.995,8.923-8.923,8.923H27.852z
			 M77.321,321.203l-13.268,13.268c-3.488,3.487-9.137,3.483-12.618,0c-3.486-3.484-3.486-9.134-0.001-12.619l13.268-13.268
			c3.486-3.484,9.135-3.486,12.618,0C80.805,312.07,80.805,317.719,77.321,321.203z M138.829,358.055
			c0,4.928-3.995,8.923-8.923,8.923c-4.928,0-8.923-3.995-8.923-8.923V339.29c0-4.928,3.995-8.923,8.923-8.923
			c4.928,0,8.923,3.995,8.923,8.923V358.055z M135.296,268.858l-57.568,24.135c-7.102,2.978-15.272-0.367-18.249-7.467
			c-2.977-7.102,0.367-15.272,7.467-18.249l57.568-24.135c7.099-2.977,15.269,0.365,18.249,7.467
			C145.741,257.711,142.397,265.881,135.296,268.858z M182.491,190.797l13.268-13.268c3.487-3.484,9.135-3.484,12.619,0
			c3.484,3.484,3.484,9.134-0.001,12.618l-13.268,13.268c-3.486,3.484-9.134,3.486-12.619,0
			C179.006,199.93,179.006,194.281,182.491,190.797z M208.379,334.473c-3.487,3.486-9.134,3.484-12.619,0l-13.268-13.268
			c-3.484-3.484-3.484-9.134,0-12.618c3.486-3.484,9.134-3.484,12.619,0l13.268,13.268
			C211.863,325.339,211.863,330.988,208.379,334.473z M231.96,264.923h-18.764c-4.928,0-8.923-3.995-8.923-8.923
			c0-4.928,3.995-8.923,8.923-8.923h18.764c4.928,0,8.923,3.995,8.923,8.923C240.883,260.928,236.888,264.923,231.96,264.923z
			 M373.171,153.946c0-4.928,3.995-8.923,8.923-8.923c4.928,0,8.923,3.995,8.923,8.923v18.765c0,4.928-3.995,8.923-8.923,8.923
			c-4.928,0-8.923-3.995-8.923-8.923V153.946z M303.621,177.528c3.485-3.484,9.134-3.485,12.619,0l13.268,13.268
			c3.486,3.484,3.486,9.134,0.001,12.618c-3.486,3.484-9.135,3.484-12.619,0l-13.268-13.268
			C300.137,186.662,300.137,181.013,303.621,177.528z M280.04,264.923c-4.928,0-8.923-3.995-8.923-8.923
			c0-4.928,3.995-8.923,8.923-8.923h18.765c4.928,0,8.923,3.995,8.923,8.923c0,4.928-3.995,8.923-8.923,8.923H280.04z
			 M329.51,321.203l-13.268,13.268c-3.487,3.486-9.134,3.484-12.619,0c-3.484-3.484-3.484-9.134,0-12.618l13.268-13.268
			c3.486-3.484,9.134-3.484,12.619,0C332.995,312.07,332.995,317.719,329.51,321.203z M391.017,358.055
			c0,4.928-3.995,8.923-8.923,8.923c-4.928,0-8.923-3.995-8.923-8.923V339.29c0-4.928,3.995-8.923,8.923-8.923
			c4.928,0,8.923,3.995,8.923,8.923V358.055z M414.61,334.407c-7.11,2.95-15.268-0.423-18.22-7.538l-27.175-65.529
			c-2.95-7.113,0.426-15.269,7.539-18.22c7.11-2.95,15.267,0.424,18.22,7.538l27.175,65.529
			C425.098,323.3,421.723,331.458,414.61,334.407z M434.68,190.797l13.268-13.268c3.488-3.484,9.136-3.484,12.619,0
			c3.484,3.484,3.484,9.134-0.001,12.618l-13.268,13.268c-3.486,3.484-9.134,3.486-12.619,0
			C431.195,199.93,431.195,194.281,434.68,190.797z M460.568,334.473c-3.487,3.486-9.134,3.484-12.619,0l-13.268-13.268
			c-3.484-3.484-3.484-9.134,0-12.618c3.486-3.484,9.134-3.484,12.619,0l13.268,13.268
			C464.053,325.339,464.053,330.988,460.568,334.473z M484.148,264.923h-18.764c-4.928,0-8.923-3.995-8.923-8.923
			c0-4.928,3.995-8.923,8.923-8.923h18.764c4.928,0,8.923,3.995,8.923,8.923C493.071,260.928,489.076,264.923,484.148,264.923z"/>
	</g>
</g>
</svg>